<?xml version="1.0" encoding="UTF-8" standalone="no"?>
<!-- Created with Inkscape (http://www.inkscape.org/) -->

<svg
   xmlns:osb="http://www.openswatchbook.org/uri/2009/osb"
   xmlns:dc="http://purl.org/dc/elements/1.1/"
   xmlns:cc="http://creativecommons.org/ns#"
   xmlns:rdf="http://www.w3.org/1999/02/22-rdf-syntax-ns#"
   xmlns:svg="http://www.w3.org/2000/svg"
   xmlns="http://www.w3.org/2000/svg"
   xmlns:sodipodi="http://sodipodi.sourceforge.net/DTD/sodipodi-0.dtd"
   xmlns:inkscape="http://www.inkscape.org/namespaces/inkscape"
   id="svg3586"
   version="1.1"
   inkscape:version="0.48.0 r9654"
   width="1582.559"
   height="1576"
   sodipodi:docname="logoChoco-for.svg">
  <metadata
     id="metadata3592">
    <rdf:RDF>
      <cc:Work
         rdf:about="">
        <dc:format>image/svg+xml</dc:format>
        <dc:type
           rdf:resource="http://purl.org/dc/dcmitype/StillImage" />
        <dc:title></dc:title>
      </cc:Work>
    </rdf:RDF>
  </metadata>
  <defs
     id="defs3590">
    <linearGradient
       id="linearGradient5862"
       osb:paint="solid">
      <stop
         style="stop-color:#ffeeaa;stop-opacity:1;"
         offset="0"
         id="stop5864" />
    </linearGradient>
  </defs>
  <sodipodi:namedview
     pagecolor="#ffffff"
     bordercolor="#666666"
     borderopacity="1"
     objecttolerance="10"
     gridtolerance="10"
     guidetolerance="10"
     inkscape:pageopacity="0"
     inkscape:pageshadow="2"
     inkscape:window-width="1920"
     inkscape:window-height="1082"
     id="namedview3588"
     showgrid="false"
     inkscape:zoom="0.27411168"
     inkscape:cx="2012.3656"
     inkscape:cy="321.53753"
     inkscape:window-x="1280"
     inkscape:window-y="0"
     inkscape:window-maximized="0"
     inkscape:current-layer="svg3586"
     fit-margin-top="0"
     fit-margin-left="0"
     fit-margin-right="0"
     fit-margin-bottom="0"
     units="pc" />
  <path
     inkscape:connector-curvature="0"
     id="path3785"
     d="m 790.71332,3.3324451 c -3.39008,0 -6.78773,0.025 -10.18743,0.07 C 345.3653,9.2435151 -2.6865,366.76127 3.1546051,801.92254 l 0.948485,29.33281 C 25.56545,1254.4938 377.92959,1584.9472 801.6736,1579.2593 1236.8341,1573.4182 1584.8509,1215.9355 1579.0097,780.77446 1573.2143,349.01296 1221.2537,3.0063251 790.71332,3.3318451 z"
     style="fill:#5d4014;fill-opacity:1;stroke:none"
     sodipodi:nodetypes="ccccsscc" />
  <path
     style="fill:#fa931d;fill-opacity:1;stroke:none"
     d="m 790.94562,90.156455 c -3.01574,0 -6.03821,0.022 -9.0625,0.062 C 394.77447,95.414555 85.155758,413.45346 90.351868,800.56216 l 0.84375,26.0938 C 110.28803,1203.1588 423.7429,1497.122 800.69562,1492.0622 1187.8042,1486.8661 1497.3917,1168.8583 1492.1956,781.74966 1487.0401,397.66526 1173.9442,89.866355 790.94562,90.155955 z m 0.0312,79.874905 c 339.36598,-0.2566 616.80688,272.4533 621.37498,612.7813 4.6042,343.00774 -269.7422,624.80214 -612.74993,629.40624 -334.00882,4.4834 -611.73892,-255.9835 -628.65625,-589.59374 l -0.75,-23.125 c -4.60414,-343.0078 269.74226,-624.8021 612.75,-629.4063 2.67975,-0.036 5.35908,-0.06 8.03125,-0.062 z"
     id="path6137"
     inkscape:connector-curvature="0" />
  <text
     xml:space="preserve"
     style="font-size:1130.17468262px;font-style:normal;font-variant:normal;font-weight:normal;font-stretch:normal;text-align:start;line-height:125%;letter-spacing:0px;word-spacing:0px;writing-mode:lr-tb;text-anchor:start;fill:#fa931d;fill-opacity:1;stroke:none;font-family:IndieStar BB;-inkscape-font-specification:IndieStar BB"
     x="617.50507"
     y="811.48938"
     id="text3159"
     sodipodi:linespacing="125%"
     transform="scale(0.96875966,1.0322478)"><tspan
       sodipodi:role="line"
       id="tspan3161"
       x="617.50507"
       y="811.48938">O</tspan></text>
  <text
     xml:space="preserve"
     style="font-size:607.19561768px;font-style:normal;font-variant:normal;font-weight:normal;font-stretch:normal;text-align:start;line-height:125%;letter-spacing:0px;word-spacing:0px;writing-mode:lr-tb;text-anchor:start;fill:#fa931d;fill-opacity:1;stroke:none;font-family:IndieStar BB;-inkscape-font-specification:IndieStar BB"
     x="697.94745"
     y="610.33978"
     id="text3163"
     sodipodi:linespacing="125%"
     transform="scale(0.96875966,1.0322478)"><tspan
       sodipodi:role="line"
       id="tspan3165"
       x="697.94745"
       y="610.33978">..</tspan></text>
  <text
     xml:space="preserve"
     style="font-size:1570.04772949px;font-style:normal;font-variant:normal;font-weight:normal;font-stretch:normal;text-align:start;line-height:125%;letter-spacing:0px;word-spacing:0px;writing-mode:lr-tb;text-anchor:start;fill:#fa931d;fill-opacity:1;stroke:none;font-family:IndieStar BB;-inkscape-font-specification:IndieStar BB"
     x="1299.3518"
     y="1407.8862"
     id="text3175"
     sodipodi:linespacing="125%"
     transform="matrix(0.60922918,0.15963298,-0.38784455,1.5397936,0,0)"
     inkscape:transform-center-x="67.593516"
     inkscape:transform-center-y="199.37403"><tspan
       sodipodi:role="line"
       id="tspan3177"
       x="1299.3518"
       y="1407.8862">^</tspan></text>
  <text
     xml:space="preserve"
     style="font-size:1121.14660645px;font-style:normal;font-variant:normal;font-weight:normal;font-stretch:normal;text-align:start;line-height:125%;letter-spacing:0px;word-spacing:0px;writing-mode:lr-tb;text-anchor:start;fill:#fa931d;fill-opacity:1;stroke:none;font-family:IndieStar BB;-inkscape-font-specification:IndieStar BB"
     x="205.17143"
     y="1588.0819"
     id="text3183"
     sodipodi:linespacing="125%"
     transform="matrix(0.59405,-0.42959866,0.73408008,1.1524959,0,0)"><tspan
       sodipodi:role="line"
       id="tspan3185"
       x="205.17143"
       y="1588.0819">^</tspan></text>
  <path
     style="opacity:0.25;fill:#f2f2f2;fill-opacity:1;stroke:none"
     d="m 746.5,6.3069551 -29.4375,0.094 C 403.88011,35.677255 144.9033,247.76976 46.09375,533.74476 c 214.21509,80.0282 478.38933,127.25 763.96875,127.25 271.0248,0 522.5924,-42.5042 730.4687,-115.125 C 1444.5351,252.34216 1181.1227,35.433155 864.4375,6.3072551 l -117.9375,0 z"
     id="path4418"
     inkscape:connector-curvature="0" />
  <text
     transform="matrix(-0.24384938,-0.6628514,-1.330142,0.48519094,0,0)"
     sodipodi:linespacing="125%"
     id="text3217"
     y="287.69376"
     x="-1620.0406"
     style="font-size:866.71472168px;font-style:normal;font-variant:normal;font-weight:normal;font-stretch:normal;text-align:start;line-height:125%;letter-spacing:0px;word-spacing:0px;writing-mode:lr-tb;text-anchor:start;fill:#fa931d;fill-opacity:1;stroke:none;font-family:IndieStar BB;-inkscape-font-specification:IndieStar BB"
     xml:space="preserve"
     inkscape:transform-center-x="113.12912"
     inkscape:transform-center-y="-4.2438445"><tspan
       y="287.69376"
       x="-1620.0406"
       id="tspan3219"
       sodipodi:role="line">^</tspan></text>
</svg>
