<?xml version="1.0" encoding="UTF-8" standalone="no"?>
<!-- Created with Inkscape (http://www.inkscape.org/) -->

<svg
   xmlns:osb="http://www.openswatchbook.org/uri/2009/osb"
   xmlns:dc="http://purl.org/dc/elements/1.1/"
   xmlns:cc="http://creativecommons.org/ns#"
   xmlns:rdf="http://www.w3.org/1999/02/22-rdf-syntax-ns#"
   xmlns:svg="http://www.w3.org/2000/svg"
   xmlns="http://www.w3.org/2000/svg"
   xmlns:xlink="http://www.w3.org/1999/xlink"
   xmlns:sodipodi="http://sodipodi.sourceforge.net/DTD/sodipodi-0.dtd"
   xmlns:inkscape="http://www.inkscape.org/namespaces/inkscape"
   id="svg3586"
   version="1.1"
   inkscape:version="0.48.0 r9654"
   width="720.71765"
   height="326.46875"
   sodipodi:docname="logoText.svg">
  <metadata
     id="metadata3592">
    <rdf:RDF>
      <cc:Work
         rdf:about="">
        <dc:format>image/svg+xml</dc:format>
        <dc:type
           rdf:resource="http://purl.org/dc/dcmitype/StillImage" />
        <dc:title />
      </cc:Work>
    </rdf:RDF>
  </metadata>
  <defs
     id="defs3590">
    <linearGradient
       id="linearGradient5287"
       osb:paint="solid">
      <stop
         style="stop-color:#fa951d;stop-opacity:1;"
         offset="0"
         id="stop5289" />
    </linearGradient>
    <linearGradient
       id="linearGradient3773">
      <stop
         style="stop-color:#fa951d;stop-opacity:1;"
         offset="0"
         id="stop3775" />
      <stop
         id="stop5319"
         offset="0.85620916"
         style="stop-color:#fa951d;stop-opacity:0.74901962;" />
      <stop
         id="stop3801"
         offset="1"
         style="stop-color:#fa951d;stop-opacity:0.92411923;" />
    </linearGradient>
    <linearGradient
       id="linearGradient5862"
       osb:paint="solid">
      <stop
         style="stop-color:#ffeeaa;stop-opacity:1;"
         offset="0"
         id="stop5864" />
    </linearGradient>
    <linearGradient
       inkscape:collect="always"
       xlink:href="#linearGradient3773"
       id="linearGradient5291"
       x1="1808.4596"
       y1="247.92934"
       x2="2021.689"
       y2="247.92934"
       gradientUnits="userSpaceOnUse" />
    <linearGradient
       inkscape:collect="always"
       xlink:href="#linearGradient3773"
       id="linearGradient5293"
       x1="1658.3705"
       y1="261.1496"
       x2="1818.2004"
       y2="261.1496"
       gradientUnits="userSpaceOnUse" />
    <linearGradient
       inkscape:collect="always"
       xlink:href="#linearGradient3773"
       id="linearGradient5295"
       x1="1516.6089"
       y1="245.07793"
       x2="1666.0699"
       y2="245.07793"
       gradientUnits="userSpaceOnUse" />
    <linearGradient
       inkscape:collect="always"
       xlink:href="#linearGradient3773"
       id="linearGradient5297"
       x1="1382.1055"
       y1="272.03693"
       x2="1513.9395"
       y2="272.03693"
       gradientUnits="userSpaceOnUse" />
    <linearGradient
       inkscape:collect="always"
       xlink:href="#linearGradient3773"
       id="linearGradient5299"
       x1="1175.4414"
       y1="290.44162"
       x2="1372.0807"
       y2="290.44162"
       gradientUnits="userSpaceOnUse" />
    <linearGradient
       inkscape:collect="always"
       xlink:href="#linearGradient3773"
       id="linearGradient5301"
       x1="1008.6855"
       y1="185.02635"
       x2="1162.9117"
       y2="185.02635"
       gradientUnits="userSpaceOnUse" />
    <linearGradient
       inkscape:collect="always"
       xlink:href="#linearGradient3773"
       id="linearGradient5303"
       x1="736.55426"
       y1="290.44162"
       x2="933.19354"
       y2="290.44162"
       gradientUnits="userSpaceOnUse" />
    <linearGradient
       inkscape:collect="always"
       xlink:href="#linearGradient3773"
       id="linearGradient5305"
       x1="563.47552"
       y1="260.89041"
       x2="724.86066"
       y2="260.89041"
       gradientUnits="userSpaceOnUse" />
    <linearGradient
       inkscape:collect="always"
       xlink:href="#linearGradient3773"
       id="linearGradient5307"
       x1="357.84824"
       y1="290.44162"
       x2="554.48755"
       y2="290.44162"
       gradientUnits="userSpaceOnUse" />
    <linearGradient
       inkscape:collect="always"
       xlink:href="#linearGradient3773"
       id="linearGradient5309"
       x1="179.56071"
       y1="232.11684"
       x2="352.87012"
       y2="232.11684"
       gradientUnits="userSpaceOnUse" />
    <linearGradient
       inkscape:collect="always"
       xlink:href="#linearGradient3773"
       id="linearGradient5311"
       x1="-5"
       y1="194.62704"
       x2="187.07913"
       y2="194.62704"
       gradientUnits="userSpaceOnUse"
       gradientTransform="matrix(0.83588626,0,0,0.83588626,30.702255,62.950231)" />
  </defs>
  <sodipodi:namedview
     pagecolor="#ffffff"
     bordercolor="#666666"
     borderopacity="1"
     objecttolerance="10"
     gridtolerance="10"
     guidetolerance="10"
     inkscape:pageopacity="0"
     inkscape:pageshadow="2"
     inkscape:window-width="1920"
     inkscape:window-height="1082"
     id="namedview3588"
     showgrid="false"
     inkscape:zoom="1.2419306"
     inkscape:cx="396.00102"
     inkscape:cy="191.97786"
     inkscape:window-x="1280"
     inkscape:window-y="0"
     inkscape:window-maximized="0"
     inkscape:current-layer="svg3586"
     fit-margin-top="0"
     fit-margin-left="0"
     fit-margin-right="0"
     fit-margin-bottom="0"
     units="pc" />
  <g
     id="g3821"
     transform="translate(-48.880505,-20.711432)">
    <path
       d="m 184.87271,248.44582 c -1.5e-4,18.93963 -6.05459,36.79247 -18.16335,53.55857 -13.04046,18.31861 -28.56467,27.47789 -46.57267,27.47788 -8.69363,10e-6 -18.00815,-2.01813 -27.943593,-6.05444 C 73.563987,315.66574 60.989378,299.98629 54.469226,276.38942 50.7434,262.4177 48.880494,241.46002 48.880505,213.51631 48.880494,140.86314 66.578093,91.496152 101.97336,65.415202 c 9.93543,-7.14086 19.24994,-10.71143 27.94359,-10.71172 13.35073,2.9e-4 25.61486,9.31481 36.79241,27.94361 9.62489,16.45592 14.43739,32.135378 14.43753,47.038408 -1.4e-4,8.0728 -3.88119,12.10909 -11.64317,12.10889 -8.07271,2e-4 -13.50619,-5.58851 -16.30043,-16.76616 -3.41544,-14.90303 -8.84892,-25.614738 -16.30044,-32.135148 -4.34687,-3.72557 -8.53841,-5.58847 -12.57462,-5.58872 -12.41944,2.5e-4 -24.0626,16.145428 -34.929503,48.435588 -8.6936,26.70184 -13.19562,48.43574 -13.50607,65.20174 l 0,19.56052 c -4e-5,17.07676 2.32859,33.22193 6.9859,48.43559 6.52012,21.42348 16.45562,32.13518 29.806513,32.13514 5.27815,4e-5 11.02211,-2.32859 17.23188,-6.9859 9.9354,-6.8306 16.76606,-14.59271 20.49198,-23.28634 2.48376,-6.52009 4.50191,-16.76607 6.05445,-30.73796 0.93133,-8.07249 4.81238,-12.10878 11.64316,-12.1089 11.17731,1.2e-4 16.76602,6.83077 16.76617,20.49198"
       style="font-size:465.72674561px;font-style:normal;font-variant:normal;font-weight:normal;font-stretch:normal;text-align:start;line-height:125%;letter-spacing:0px;word-spacing:0px;writing-mode:lr-tb;text-anchor:start;fill:#5d4014;fill-opacity:1;stroke:none;font-family:IndieStar BB;-inkscape-font-specification:IndieStar BB"
       id="path5438"
       inkscape:connector-curvature="0" />
    <path
       inkscape:connector-curvature="0"
       id="path5440"
       d="m 260.72314,20.711432 c -10.55656,3.2e-4 -15.84383,5.4146 -15.84375,16.28125 -8e-5,27.63339 5.889,70.502128 17.6875,128.562508 -28.25417,5.58889 -44.24299,8.84996 -47.96875,9.78125 -0.62102,-27.32244 -0.93755,-54.64589 -0.9375,-81.968758 -5e-5,-4.03604 -1.55145,-7.45538 -4.65625,-10.25 -3.10489,-3.10458 -6.65124,-4.65599 -10.6875,-4.65625 -6.83068,2.6e-4 -10.88309,4.33794 -12.125,13.03125 -2e-5,0.9317 -2e-5,8.0869 0,21.437498 -2e-5,9.00428 0.47477,32.75013 1.40625,71.25001 -13.35085,5.27839 -20.03126,11.32574 -20.03125,18.15625 -1e-5,3.10498 1.0766,6.52432 3.25,10.25 2.48386,3.41545 5.14313,5.12513 7.9375,5.125 2.48386,1.3e-4 5.74493,-1.07649 9.78125,-3.25 0.31046,20.49208 0.75401,40.97686 1.375,61.46875 0.62094,25.77025 2.17235,45.9385 4.65625,60.53125 1.55239,7.14114 5.60478,10.71874 12.125,10.71875 10.24593,-10e-6 15.37494,-5.28728 15.375,-15.84375 -6e-5,-15.5242 -0.94965,-36.76906 -2.8125,-63.78125 -1.86296,-31.04835 -3.09783,-52.32445 -3.71875,-63.8125 24.83869,-7.141 42.22065,-10.87687 52.15625,-11.1875 4.34667,21.73404 7.92428,40.50914 10.71875,56.34375 4.03618,25.14931 6.82245,44.11393 8.375,56.84375 1.86278,7.76214 6.20046,11.62502 13.03125,11.625 9.62487,2e-5 14.4686,-5.41426 14.46875,-16.28125 -4e-5,-5.11924 -0.58455,-12.209 -1.71875,-21.09375 10.30404,17.81555 27.95366,29.19504 52.96875,34.125 5.89913,1.24196 11.1864,1.84377 15.84375,1.84375 24.52816,2e-5 45.77302,-14.56441 63.78125,-43.75 16.14503,-26.0806 24.21858,-52.32744 24.21875,-78.71875 -1.7e-4,-38.81037 -16.59082,-68.9201 -49.8125,-90.34376 -9.00416,-5.898958 -15.84285,-8.843508 -20.5,-8.843748 -4.96786,2.4e-4 -9.30554,2.78652 -13.03125,8.374998 -22.97593,4.96798 -43.17542,22.1917 -60.5625,51.68751 -13.34139,22.49735 -21.02428,44.66407 -23.125,66.5 -3.16455,-15.90731 -6.94804,-33.83888 -11.375,-53.9375 -5.89933,-25.77001 -10.71181,-56.03801 -14.4375,-90.812508 -1.86302,-19.24975 -3.25616,-33.84545 -4.1875,-43.78125 -0.93156,-7.7618 -4.79445,-11.62468 -11.625,-11.625 z m 137.875,108.500008 c 4.34667,2.1e-4 10.55229,1.86815 18.625,5.59375 l 0,0.46875 c 16.45554,13.66151 24.68735,33.06968 24.6875,58.21875 -1.5e-4,20.49211 -5.44569,40.50209 -16.3125,60.0625 -13.04047,22.66544 -28.87103,34.00005 -47.5,34 -13.97187,5e-5 -26.06657,-5.73077 -36.3125,-17.21875 -9.93555,-11.79833 -14.90628,-24.68436 -14.90625,-38.65625 -3e-5,-11.48781 2.94451,-23.89904 8.84375,-37.25 4.9677,-11.48777 13.19951,-24.3738 24.6875,-38.65625 14.2822,-18.0079 25.61682,-26.55625 34,-25.625 1.24183,-0.62076 2.63497,-0.93729 4.1875,-0.9375 z"
       style="font-size:465.72674561px;font-style:normal;font-variant:normal;font-weight:normal;font-stretch:normal;text-align:start;line-height:125%;letter-spacing:0px;word-spacing:0px;writing-mode:lr-tb;text-anchor:start;fill:#5d4014;fill-opacity:1;stroke:none;font-family:IndieStar BB;-inkscape-font-specification:IndieStar BB" />
    <path
       inkscape:connector-curvature="0"
       id="path5444"
       d="m 555.47314,54.711432 c -8.69365,2.9e-4 -18.00207,3.57789 -27.9375,10.71875 -35.39526,26.08095 -53.09376,75.440588 -53.09375,148.093758 -10e-6,27.94371 1.86792,48.90328 5.59375,62.875 6.52015,23.59687 19.08965,39.26916 37.71875,47.03125 9.93544,4.03631 19.24386,6.06251 27.9375,6.0625 18.008,1e-5 33.55329,-9.18139 46.59375,-27.5 7.52525,-10.41965 12.68267,-21.24088 15.53125,-32.5 8.99453,23.90285 28.28696,38.78765 57.90625,44.625 5.89913,1.24196 11.1864,1.84377 15.84375,1.84375 24.52817,2e-5 45.80426,-14.56441 63.8125,-43.75 16.14502,-26.0806 24.21857,-52.32744 24.21875,-78.71875 -1.8e-4,-38.81037 -16.62206,-68.9201 -49.84375,-90.34376 -9.00416,-5.898958 -15.84284,-8.843508 -20.5,-8.843748 -4.96785,2.4e-4 -9.30553,2.78652 -13.03125,8.374998 -22.97592,4.96798 -43.17541,22.1917 -60.5625,51.68751 -15.13877,25.52825 -23.02215,50.63589 -23.6875,75.3125 -2.29827,-1.14362 -5.07858,-1.71872 -8.3125,-1.71875 -6.83078,1.2e-4 -10.69366,4.02126 -11.625,12.09375 -1.55254,13.97189 -3.57874,24.22991 -6.0625,30.75 -3.72593,8.69363 -10.5646,16.45065 -20.5,23.28125 -6.20978,4.65731 -11.94059,7.00004 -17.21875,7 -13.35089,4e-5 -23.29238,-10.73277 -29.8125,-32.15625 -4.65731,-15.21366 -7.00004,-31.36074 -7,-48.4375 l 0,-19.5625 c 0.31044,-16.766 4.83764,-38.48566 13.53125,-65.1875 10.8669,-32.29016 22.48679,-48.437258 34.90625,-48.437508 4.03621,2.5e-4 8.24687,1.86818 12.59375,5.59375 7.45152,6.52041 12.86581,17.221978 16.28125,32.125008 2.79424,11.17765 8.23978,16.78145 16.3125,16.78125 7.76198,2e-4 11.65611,-4.0522 11.65625,-12.125 -1.4e-4,-14.90303 -4.81262,-30.575338 -14.4375,-47.031258 -11.17756,-18.6288 -23.46177,-27.93721 -36.8125,-27.9375 z m 143.3125,74.500008 c 4.34668,2.1e-4 10.55229,1.86815 18.625,5.59375 l 0,0.46875 c 16.45554,13.66151 24.68735,33.06968 24.6875,58.21875 -1.5e-4,20.49211 -5.41443,40.50209 -16.28125,60.0625 -13.04046,22.66544 -28.87103,34.00005 -47.5,34 -13.97187,5e-5 -26.09782,-5.73077 -36.34375,-17.21875 -9.93554,-11.79833 -14.90628,-24.68436 -14.90625,-38.65625 -3e-5,-11.48781 2.94451,-23.89904 8.84375,-37.25 4.96771,-11.48777 13.19952,-24.3738 24.6875,-38.65625 14.2822,-18.0079 25.61683,-26.55625 34,-25.625 1.24184,-0.62076 2.63498,-0.93729 4.1875,-0.9375 z"
       style="font-size:465.72674561px;font-style:normal;font-variant:normal;font-weight:normal;font-stretch:normal;text-align:start;line-height:125%;letter-spacing:0px;word-spacing:0px;writing-mode:lr-tb;text-anchor:start;fill:#5d4014;fill-opacity:1;stroke:none;font-family:IndieStar BB;-inkscape-font-specification:IndieStar BB" />
    <path
       id="path5455"
       d="M 260.71875,20.71875 C 250.16219,20.71907 244.87492,26.13335 244.875,37 c -8e-5,27.63339 5.889,70.50212 17.6875,128.5625 -28.25417,5.58889 -44.24299,8.84996 -47.96875,9.78125 -0.62102,-27.32244 -0.93755,-54.64588 -0.9375,-81.96875 -5e-5,-4.03604 -1.55145,-7.45538 -4.65625,-10.25 -3.10489,-3.10458 -6.65124,-4.65599 -10.6875,-4.65625 -6.83068,2.6e-4 -10.88309,4.33794 -12.125,13.03125 -2e-5,0.9317 -2e-5,8.086902 0,21.4375 -2e-5,8.55229 0.47137,31.40208 1.3125,66.5625 34.70862,4.76291 70.97749,8.35478 108.46875,10.59375 -1.5771,-7.40737 -3.21536,-15.05389 -5,-23.15625 -5.89933,-25.77001 -10.71181,-56.038 -14.4375,-90.8125 -1.86302,-19.24975 -3.25616,-33.84545 -4.1875,-43.78125 -0.93156,-7.7618 -4.79445,-11.62468 -11.625,-11.625 z m -130.8125,34 c -8.69365,2.9e-4 -18.00207,3.54664 -27.9375,10.6875 -24.553807,18.092437 -40.572746,47.42637 -48.09375,87.9375 9.258716,2.43286 18.722818,4.76731 28.375,7 1.946191,-7.67118 4.311653,-15.85675 7.15625,-24.59375 10.8669,-32.29016 22.51806,-48.43725 34.9375,-48.4375 4.03621,2.5e-4 8.21563,1.86818 12.5625,5.59375 7.45152,6.52041 12.89706,17.22197 16.3125,32.125 2.79424,11.17765 8.20854,16.7502 16.28125,16.75 7.76198,2e-4 11.65611,-4.02095 11.65625,-12.09375 -1.4e-4,-14.90303 -4.81261,-30.57533 -14.4375,-47.03125 -11.17755,-18.6288 -23.46177,-27.93721 -36.8125,-27.9375 z m 425.5625,0 c -8.69365,2.9e-4 -18.00207,3.57789 -27.9375,10.71875 -31.51033,23.218344 -48.97883,64.90432 -52.4375,125.03125 9.13864,-0.5025 18.2249,-1.0918 27.21875,-1.75 1.71911,-14.69624 5.93874,-32.33638 12.65625,-52.96875 10.8669,-32.29016 22.48679,-48.43725 34.90625,-48.4375 4.03621,2.5e-4 8.24687,1.86818 12.59375,5.59375 7.45152,6.52041 12.86581,17.22197 16.28125,32.125 2.79424,11.17765 8.23978,16.78145 16.3125,16.78125 7.76198,2e-4 11.65611,-4.0522 11.65625,-12.125 -1.4e-4,-14.90303 -4.81262,-30.57533 -14.4375,-47.03125 -11.17756,-18.6288 -23.46177,-27.93721 -36.8125,-27.9375 z M 399.0625,94.3125 c -4.96786,2.4e-4 -9.30554,2.786522 -13.03125,8.375 -22.97593,4.96798 -43.17542,22.19169 -60.5625,51.6875 -7.25419,12.23261 -12.82939,24.36916 -16.75,36.40625 9.30813,0.47752 18.68047,0.8755 28.125,1.1875 5.04579,-10.85317 12.89447,-22.92446 23.5625,-36.1875 14.2822,-18.0079 25.61682,-26.55625 34,-25.625 1.24183,-0.62076 2.63497,-0.93729 4.1875,-0.9375 4.34667,2.1e-4 10.55229,1.86815 18.625,5.59375 l 0,0.46875 c 16.11042,13.37499 24.31806,32.27039 24.65625,56.65625 9.2099,-0.30742 18.35722,-0.69151 27.4375,-1.15625 -0.75971,-37.50235 -17.30703,-66.70351 -49.75,-87.625 -9.00416,-5.898958 -15.84285,-8.84351 -20.5,-8.84375 z m 300.1875,0 c -4.96785,2.4e-4 -9.30553,2.786522 -13.03125,8.375 -22.97592,4.96798 -43.17541,22.19169 -60.5625,51.6875 -4.29603,7.24431 -7.99666,14.44867 -11.125,21.625 12.00547,-1.87557 23.83151,-3.87111 35.40625,-6.03125 3.17514,-4.57245 6.71382,-9.28606 10.65625,-14.1875 14.2822,-18.0079 25.61683,-26.55625 34,-25.625 1.24184,-0.62076 2.63498,-0.93729 4.1875,-0.9375 4.34668,2.1e-4 10.55229,1.86815 18.625,5.59375 l 0,0.46875 c 5.66805,4.70566 10.3774,10.08722 14.09375,16.15625 9.08454,-2.46474 17.98724,-5.00431 26.65625,-7.65625 -8.29282,-15.9031 -21.07775,-29.45038 -38.40625,-40.625 -9.00416,-5.898958 -15.84284,-8.84351 -20.5,-8.84375 z"
       style="opacity:0.25;fill:#f2f2f2;fill-opacity:1;stroke:none"
       inkscape:connector-curvature="0" />
  </g>
</svg>
