<?xml version="1.0" encoding="UTF-8" standalone="no"?>
<!-- Created with Inkscape (http://www.inkscape.org/) -->

<svg
   xmlns:osb="http://www.openswatchbook.org/uri/2009/osb"
   xmlns:dc="http://purl.org/dc/elements/1.1/"
   xmlns:cc="http://creativecommons.org/ns#"
   xmlns:rdf="http://www.w3.org/1999/02/22-rdf-syntax-ns#"
   xmlns:svg="http://www.w3.org/2000/svg"
   xmlns="http://www.w3.org/2000/svg"
   xmlns:xlink="http://www.w3.org/1999/xlink"
   xmlns:sodipodi="http://sodipodi.sourceforge.net/DTD/sodipodi-0.dtd"
   xmlns:inkscape="http://www.inkscape.org/namespaces/inkscape"
   id="svg3586"
   version="1.1"
   inkscape:version="0.48.0 r9654"
   width="1576"
   height="1576"
   sodipodi:docname="logoChoco-dl.svg">
  <metadata
     id="metadata3592">
    <rdf:RDF>
      <cc:Work
         rdf:about="">
        <dc:format>image/svg+xml</dc:format>
        <dc:type
           rdf:resource="http://purl.org/dc/dcmitype/StillImage" />
        <dc:title />
      </cc:Work>
    </rdf:RDF>
  </metadata>
  <defs
     id="defs3590">
    <linearGradient
       id="linearGradient5862"
       osb:paint="solid">
      <stop
         style="stop-color:#f2f2f2;stop-opacity:1;"
         offset="0"
         id="stop5864" />
    </linearGradient>
    <linearGradient
       inkscape:collect="always"
       xlink:href="#linearGradient5862"
       id="linearGradient6006"
       gradientUnits="userSpaceOnUse"
       x1="-538.0329"
       y1="372.13739"
       x2="2049.6184"
       y2="372.13739"
       gradientTransform="matrix(1,0,0,1.2524465,97.142539,174.62213)" />
    <linearGradient
       inkscape:collect="always"
       xlink:href="#linearGradient5862"
       id="linearGradient6144"
       gradientUnits="userSpaceOnUse"
       gradientTransform="matrix(1,0,0,1.2524465,145.94532,365.39664)"
       x1="-538.0329"
       y1="372.13739"
       x2="2049.6184"
       y2="372.13739" />
    <linearGradient
       inkscape:collect="always"
       xlink:href="#linearGradient5862"
       id="linearGradient3868"
       gradientUnits="userSpaceOnUse"
       gradientTransform="matrix(1,0,0,1.2524465,51.064398,-138.08181)"
       x1="-538.0329"
       y1="372.13739"
       x2="2049.6184"
       y2="372.13739" />
  </defs>
  <sodipodi:namedview
     pagecolor="#ffffff"
     bordercolor="#666666"
     borderopacity="1"
     objecttolerance="10"
     gridtolerance="10"
     guidetolerance="10"
     inkscape:pageopacity="0"
     inkscape:pageshadow="2"
     inkscape:window-width="755"
     inkscape:window-height="602"
     id="namedview3588"
     showgrid="false"
     inkscape:zoom="0.16773731"
     inkscape:cx="788.00574"
     inkscape:cy="934.83148"
     inkscape:window-x="1280"
     inkscape:window-y="0"
     inkscape:window-maximized="1"
     inkscape:current-layer="svg3586"
     fit-margin-top="0"
     fit-margin-left="0"
     fit-margin-right="0"
     fit-margin-bottom="0"
     units="m" />
  <rect
     style="fill:#ffffff;fill-opacity:1;stroke:none"
     id="rect6037"
     width="1765.7733"
     height="2289.2939"
     x="-94.88092"
     y="-503.47845"
     rx="61.014137"
     ry="66.07399" />
  <path
     inkscape:connector-curvature="0"
     id="path3863"
     d="M 787.63113,2.2952412e-4 C 784.24105,0.00222952 780.8434,0.02482952 777.4437,0.07052952 342.28313,5.9116095 -5.7686426,363.42936 0.07245738,798.59045 l 0.94849002,29.3329 C 22.483298,1251.1621 374.84742,1581.6155 798.5914,1575.9276 1233.7519,1570.0865 1581.7686,1212.6038 1575.9275,777.44275 1570.1321,345.68133 1218.1715,-0.32531048 787.63113,2.2952412e-4 z"
     style="fill:#5d4014;fill-opacity:1;stroke:none"
     sodipodi:nodetypes="ccccssc" />
  <path
     style="fill:#fa931d;fill-opacity:1;stroke:none"
     d="m 787.67186,87.01481 c -3.01574,0.002 -6.03821,0.0219 -9.0625,0.0625 C 391.50071,92.27342 81.881998,410.31241 87.078108,797.42105 l 0.84375,26.0938 C 107.01427,1200.0176 420.46914,1493.9808 797.42186,1488.921 1184.5305,1483.7249 1494.118,1165.7171 1488.9219,778.60855 1483.7664,394.5242 1170.6705,86.72521 787.67186,87.01481 z m 0.0312,79.875 C 1127.0691,166.6332 1404.51,439.34306 1409.0781,779.67105 1413.6823,1122.6787 1139.3359,1404.4731 796.32811,1409.0772 462.31929,1413.5606 184.58919,1153.0937 167.67186,819.48355 l -0.75,-23.125 c -4.60414,-343.00773 269.74226,-624.8021 612.75,-629.40624 2.67975,-0.036 5.35908,-0.0605 8.03125,-0.0625 z"
     id="path6137"
     inkscape:connector-curvature="0" />
  <g
     id="g5941"
     transform="translate(38.005768,39.96532)">
    <path
       inkscape:transform-center-x="-1.6929135e-05"
       transform="matrix(1.7085604,0,0,1.3303776,3557.3864,2779.2458)"
       inkscape:transform-center-y="89.576699"
       d="m -1643.1298,-1190.5962 c -32.8712,0 -123.511,-160.062 -139.9466,-188.5293 -16.4356,-28.4673 -109.7334,-186.9947 -93.2978,-215.4619 16.4356,-28.4673 200.3732,-26.9328 233.2444,-26.9328 32.8712,0 216.8089,-1.5345 233.2445,26.9327 16.4356,28.4673 -76.8622,186.9948 -93.2978,215.462 -16.4356,28.4673 -107.0755,188.5293 -139.9467,188.5293 z"
       inkscape:randomized="0"
       inkscape:rounded="0.14"
       inkscape:flatsided="false"
       sodipodi:arg2="2.6179939"
       sodipodi:arg1="1.5707963"
       sodipodi:r2="161.5965"
       sodipodi:r1="269.32748"
       sodipodi:cy="-1459.9237"
       sodipodi:cx="-1643.1298"
       sodipodi:sides="3"
       id="path4372"
       style="fill:#fa931d;fill-opacity:1;stroke:none"
       sodipodi:type="star" />
    <rect
       ry="70.997375"
       rx="52.584816"
       y="300.45078"
       x="592.55719"
       height="392.04257"
       width="314.8855"
       id="rect4388"
       style="fill:#fa931d;fill-opacity:1;stroke:none" />
  </g>
  <path
     style="opacity:0.25;fill:url(#linearGradient3868);fill-opacity:1;stroke:none"
     d="m 743.24408,3.1777995 -27.4375,0.0937 C 401.79178,31.8228 141.98294,244.14843 42.994078,530.67775 c 214.181032,79.9849 478.318192,127.1875 763.812502,127.1876 270.95432,0 522.43632,-42.4762 730.28132,-115.0626 C 1440.9274,248.73119 1176.6963,31.58818 859.21283,3.1777995 l -115.96875,0 z"
     id="path4418"
     inkscape:connector-curvature="0" />
</svg>
